<svg xmlns="http://www.w3.org/2000/svg" width="150" height="212.5">
  <path d="M138.42 135.21c.67 24-8.61 41.57-30.79 51.73 2.55 2.75 3.45 6.11 7 8a9.4 9.4 0 01-2.21 5.45 9.53 9.53 0 01-5.89 3.19c-2.46 0-8.46-.83-11.59-3.21a14.09 14.09 0 001.13 7.9 12.33 12.33 0 01-5.23 3.57 12.77 12.77 0 01-9.13-.44c-3.3-1.68-4.43-4.06-6.75-6.19-2.08 1.46-3.18 4.56-6.44 6a15.26 15.26 0 01-13.34-3.5c.77-1.69.87-5.79.77-7.85-3.53 1.62-6.55 3.62-11.79 3.92a12 12 0 01-6.44-4.68 11.63 11.63 0 01-1.89-5c3.55-1.55 4.09-5 6.72-6.85-22.35-10.15-31.73-27.83-31.19-52.13l-4.21 3.3a2.53 2.53 0 01-2.47.63c-.88-.36-1.17-1.54-1.28-2-.88-3.55-6.23-23-1.4-40.9 3.94-14.65 14.23-21.13 15.65-22 5.44-3.26 8.68.66 9.94-.44 1.79-1.56 1.78-5.44 1.57-8-1.23-7.37-3.18-14.68-3.81-22.1C24.1 28.92 30.43 17.5 42.22 9 50.3 3.17 59.6.67 69.37.15c10.41-.55 20.78 0 30.54 4.36 13.45 6 24 17.44 25 33.19.62 9.66-3.81 24.91-4.06 29-.16 2.65-.74 7.34 1.94 8.06.91.24 5.55-3.55 10.81-1.36 3.75 1.56 12.5 12.72 15 24.09 2.35 10.69 1.77 26.72-1.45 35.85-.48 1.36-1.35 4.21-2.58 4.6a15.83 15.83 0 01-6.15-2.73zM89.23 51.64c-2-1.91-3.58-3.28-6.34-4.12-3.65-5.18-11-4.43-13.74-.45a14.31 14.31 0 00-7.63 4.53c1.16 5.57 7.32 13.27 13.21 17 6.76-4.96 12.26-10.59 14.5-16.96zm-39.9-5.11c-4.44-23.9-21.33-10-12.51 5.76 4.93 8.82 10.71.11 12.51-5.76zm63.8 6.76c10.52-13.65-6.39-31.32-12.51-5.76 1.8 5.87 5.2 12.77 12.51 5.76z"/>
  <path d="M89.61 122.39c-3-6.5-6.51-11.76-13.31-16.44-6.65 3-13.95 13-15.15 17.7-1.76 7 1.93 14.62 15.24 19.39 14.97-6.83 16.17-14.14 13.22-20.65z" fill="#969937"/>
</svg>
