<svg xmlns="http://www.w3.org/2000/svg" viewBox="0 0 150 212.5">
  <path d="M138.4 135.2c.7 24-8.6 41.6-30.8 51.7 2.6 2.8 3.4 6.1 7 8-.1 2-.9 3.9-2.2 5.4-1.5 1.7-3.6 2.9-5.9 3.2-2.5 0-8.5-.8-11.6-3.2-.4 2.7 0 5.4 1.1 7.9-1.4 1.6-3.2 2.9-5.2 3.6-3 1-6.2.8-9.1-.4-3.3-1.7-4.4-4.1-6.8-6.2-2.1 1.5-3.2 4.6-6.4 6-4.8 1-9.7-.3-13.3-3.5.8-1.7.9-5.8.8-7.9-3.5 1.6-6.6 3.6-11.8 3.9-2.6-.8-4.9-2.4-6.4-4.7-1-1.5-1.7-3.2-1.9-5 3.6-1.6 4.1-5 6.7-6.9C20.2 177 10.9 159.3 11.4 135l-4.2 3.3c-.6.6-1.6.9-2.5.6-.9-.4-1.2-1.5-1.3-2-.9-3.6-6.2-23-1.4-40.9 3.9-14.7 14.2-21.1 15.7-22 5.4-3.3 8.7.7 9.9-.4 1.8-1.6 1.8-5.4 1.6-8-1.3-7.3-3.2-14.6-3.8-22-1.3-14.7 5-26.1 16.8-34.6C50.3 3.2 59.6.7 69.3.2c10.4-.5 20.8 0 30.5 4.4 13.4 6 24 17.4 25 33.2.6 9.7-3.8 24.9-4.1 29-.2 2.7-.7 7.3 1.9 8.1.9.2 5.5-3.6 10.8-1.4 3.8 1.6 12.5 12.7 15 24.1 2.4 10.7 1.8 26.7-1.5 35.8-.5 1.4-1.4 4.2-2.6 4.6-2-.5-4-1.4-5.9-2.8zM89.2 51.6c-2-1.9-3.6-3.3-6.3-4.1-3.6-5.2-11-4.4-13.7-.4-3 .7-5.6 2.2-7.6 4.5 1.2 5.6 7.3 13.3 13.2 17 6.7-5 12.2-10.6 14.4-17zm-39.9-5.1c-4.4-23.9-21.3-10-12.5 5.8 5 8.8 10.7.1 12.5-5.8zm63.8 6.8c10.5-13.7-6.4-31.3-12.5-5.8 1.8 5.9 5.2 12.8 12.5 5.8z"/>
  <circle cx="75.4" cy="124.5" r="17.2" fill="#93f"/>
</svg>
