<svg xmlns="http://www.w3.org/2000/svg" width="291.98" height="298.02">
  <path d="M281.55 112.37s4.48 7.62-10.54 25.32c0 0 1.8 8.52-16.81 21.74 0 0-2.24 6.73-21.51 16.14s-32.6 12.33-32.6 12.33-1.79 1.12-1.91 2.57c-.09 1.28.44 9.22-2 17.47-3.36 11.16-11.3 17.39-12.42 16.26 0 0-.45 16.59 2.35 22.64a100.8 100.8 0 009.19 13.22c3.13 3.88 4.62 5.76 5.34 6.67a7.66 7.66 0 002.28 2 14.77 14.77 0 005.84 1.67c6.42.6 12.92.49 17.18-1s7.51-.6 9.53 1.31a8.08 8.08 0 012.52 6.51 7.56 7.56 0 00-3.75-2.89c-2.22-.56-2.89.23-2.89.23s2.19 3 1.12 4.87c0 0-1.29-3.17-4.43-2.41a2.84 2.84 0 00-1.12.7 5.8 5.8 0 01-3.78 1.09c-1.54-.14-2.27-1.17-2.74-.92a4.76 4.76 0 01-2.64.7c-1.48 0-18.71-.67-21.25-.82s-5.9-3.29-5.9-3.29-3.22-1.49-5.53-.45-5.61 2.77-10.24 2.84-4.55-4.48-4.55-4.48a3.63 3.63 0 00-3.33 1.83s-.82-4.78 5.08-4.78a16.6 16.6 0 014.72-.08 27.76 27.76 0 007.85-.5c2.17-.39 3.39-1.73 2.77-2.46-3.19-3.13-12-11.81-14.2-14.1-2.69-2.8-4.7-5.15-5-7.17s-15.24-17.26-17.37-18.27-5-.78-8.07 2.25-10.82 14.28-12.73 17.11c-1.7 2.52-7.2 22.29-7.2 22.29 0 1.05 1.52 1.54 3.12 1.93 5.58 1.34 7.14 1.17 11.26 1.67s4.62 2.06 5.07 2.45a5.78 5.78 0 012.9 6.3s-2.45-3.57-4-3.07a5 5 0 01-4.29 1.17c-2.4-.61-1.61-1.33-3.39-1.44s-11-.73-12.21-1a4 4 0 00-3.12 1.06 45.76 45.76 0 00-6.27 9.53c-2.09 4.43-3 6.43-5.6 6.35 0 0-2.17.84-2.17 4.6 0 0-2.76-3.76-.5-7.27a7.67 7.67 0 012.09-4.93c2-1.84 4.09-5.77 4.09-6.52s-.58-1.68-2.84-1.68-12.87 2.21-17 4.16-8.94 3.62-10.28-.39c0 0-2.76-1.34-3.85 2.84 0 0-2.17-6.86 5.27-7.61a11.94 11.94 0 016-2.26c3.17-.08 15-1.92 16-2.08s.51-.51-1.42-.59a2 2 0 01-1.87-2.47 2 2 0 01.12-.54c.33-.83-2.17-.67-2.93 1.34 0 0 .17-4.93 4.6-3.68 0 0 3.34-.5 4.68 0 1 .37 5 1.44 5.3.54 1.9-7.69 4.56-18.56 4.64-19.37.11-1.23.56-12.77-.56-16.13s-4.26-6.28-5.94-6.28-14 5.38-18.27 0c0 0-17.48.67-22.41-3.14 0 0-13.45 4.25-4.48-4.82s16.8-13.55 28.46-19.61a69.46 69.46 0 0011.49-7.09c-30.66-7.58-31.21-13.6-31.21-13.6-26.3-11.06-29.89-23.31-29.89-23.31-25.4-17.33-23-33.47-23-33.47-15.84-20.62-11-33.91-11-33.91-16.14-24.36-6.58-39.3-6.58-39.3-5.99-19.47 3.84-36.2 7.46-36.2 1.62 0 7.25 17.73 16.41 29.68 11.29 17.26 18.54 18.76 15 11.76s9.97 3.57 26.84 28.53c10.62 10.71 8.84 7.48 6.29.66s3.84-2.89 13.2 10.1c7.3 10.13 20.64 22.8 26.14 27.85 6.53 4.92 8.78 3 9.53 2.06 2.81-3.38 6-8 6.28-11.88.51-5.38-.44-7.63-4.49-10.6-5.29-3.89-9.71-19.88.45-30.19s27.35-1.35 28.54-1.94a1.45 1.45 0 00.45-.54c.41-.52 6.88-6.21 15.21-4.39a10.37 10.37 0 012.4.83.07.07 0 010 .13c-1.22.49-8.07-.28-12.51 10.5-.84 2-2.59 3-2.73 3.43a2.59 2.59 0 002.2.75c2.56-.06 4.56-4.37 11.39-5.38s7.62 0 6.95.23a25.08 25.08 0 00-7.06 5.27c-2 2.46-4.77 4.8-5 7.75-.12 1.78 1.2 4.91 7.25 13.65 3.25 4.69 5 13.2 6 20.78a1.36 1.36 0 002.15 1c.56-.3 10.55-.79 29-16a69.88 69.88 0 0015.49-19.09c5.55-16.68 9-20.62 8.75-13.68s-.9 10.41 6-2.52c8.39-27.18 18.15-41.4 17-34s5.6 3.81 11-15.24 10.15-23.32 13.25-18.21c3.36 3.74 7.09 12.85 4.4 26.11 0 0 9.41 7.62 2.47 26.44 0 0 7.84 11.88 0 30.71-.03-.03 4.45 8.51-6.98 27.12zm-137.1-37c-1.63 1.61-.89 3.83.94 4.89s4-.45 4.34-1c1.93-3.65-3.65-5.55-5.28-3.93z" fill="#000000"/>
</svg>
